<?xml version="1.0" encoding="utf-8"?>
<!-- Generator: Adobe Illustrator 16.0.0, SVG Export Plug-In . SVG Version: 6.00 Build 0)  -->
<!DOCTYPE svg PUBLIC "-//W3C//DTD SVG 1.1//EN" "http://www.w3.org/Graphics/SVG/1.1/DTD/svg11.dtd">
<svg version="1.1" id="Layer_1" xmlns="http://www.w3.org/2000/svg" xmlns:xlink="http://www.w3.org/1999/xlink" x="0px" y="0px"
	 width="122px" height="80px" viewBox="0 0 122 80" enable-background="new 0 0 122 80" xml:space="preserve">
<path d="M-93.725,99.258c0,28.998-23.503,52.5-52.5,52.5s-52.5-23.502-52.5-52.5c0-28.997,23.503-52.5,52.5-52.5
	S-93.725,70.261-93.725,99.258z"/>
<circle cx="-261.834" cy="-24.066" r="47.5"/>
<text transform="matrix(1 0 0 1 -299.8135 0.626)" display="none" fill="#FFFFFF" font-family="'Archer-Book'" font-size="72" letter-spacing="-25">MF</text>
<text transform="matrix(1 0 0 1 -165.0801 8.9463)" font-family="'Archer-Bold'" font-size="72" letter-spacing="-23">MF</text>
<text transform="matrix(1 0 0 1 -9.3682 -76.9209)" font-family="'Archer-Semibold'" font-size="72" letter-spacing="-24">MF</text>
<g>
	<path d="M1,69.292h9.685l2.718-58.585H3.244V1.14h19.961l24.806,48.782L72.816,1.14h19.725v9.568h-10.04l2.6,58.585h9.802v9.568
		H64.901v-9.568h9.567l-1.771-48.31L48.838,67.049h-2.007l-23.86-46.066l-1.772,48.31h9.568v9.568H1V69.292z"/>
	<path d="M64.658,69.292h9.45V10.708h-9.45V1.14H121v20.315h-10.273V10.588H84.857v25.513h24.096v9.332H84.857v23.859h10.511v9.568
		h-30.71V69.292z"/>
</g>
<text transform="matrix(1 0 0 1 -184.3843 123.2944)" fill="#FFFFFF" font-family="'Archer-Bold'" font-size="72" letter-spacing="-23">MF</text>
<path fill="#FFFFFF" d="M-109.151-35.14h-7.639h-4.299v0.335h4.145l-16.93,30.851l-17.019-31.186h-7.639v0.335h7.236l-1.541,40.417
	h-7.303v0.335h14.271V5.612h-6.566l1.475-40.015l16.951,31.052h0.268l17.02-31.052l0.668,19.526V5.612h-5.762h-1.273v0.335h1.273
	h13.533h0.738V5.612h-0.738h-6.564l-0.781-19.043h14.459v-0.335h-14.471l-0.012-0.32v-20.718h6.5h15.678v6.648h0.4v-6.983H-109.151z
	 M-115.651,5.612v-8.773l0.402,8.773H-115.651z M-116.054-25.396l-0.334-9.41h0.334V-25.396z"/>
<polygon fill="#FFFFFF" points="-241.128,-46.754 -251.929,-46.754 -257.694,-46.754 -257.694,-43.154 -253.584,-43.154 
	-267.915,-11.975 -283.828,-46.754 -306.742,-46.754 -306.742,-43.154 -288.221,-43.154 -290.021,-2.974 -296.429,-2.974 
	-296.429,0.626 -279.94,0.626 -279.94,-2.974 -286.132,-2.974 -284.836,-39.985 -268.779,-5.495 -267.195,-5.495 -251.357,-39.513 
	-251.357,-2.974 -256.034,-2.974 -257.694,-2.974 -257.694,0.626 -256.034,0.626 -240.556,0.626 -239.472,0.626 -239.472,-2.974 
	-240.556,-2.974 -245.881,-2.974 -246.684,-20.904 -231.483,-20.904 -231.483,-24.504 -246.846,-24.504 -247.253,-33.597 
	-247.253,-43.154 -241.128,-43.154 -228.243,-43.154 -228.243,-36.025 -224.283,-36.025 -224.283,-46.754 "/>
<text transform="matrix(1 0 0 1 -478.7031 39.1245)" font-family="'Agendatype-Regular'" font-size="67" letter-spacing="-22">MF</text>
<text transform="matrix(1 0 0 1 -436.9375 281.1245)" font-family="'CaeciliaLTStd-Roman'" font-size="67" letter-spacing="-21">MF</text>
</svg>
